<?xml version="1.0" standalone="no"?>
<!DOCTYPE svg PUBLIC "-//W3C//DTD SVG 20010904//EN"
 "http://www.w3.org/TR/2001/REC-SVG-20010904/DTD/svg10.dtd">
<svg version="1.0" xmlns="http://www.w3.org/2000/svg"
 width="382.000000pt" height="154.000000pt" viewBox="0 0 382.000000 154.000000"
 preserveAspectRatio="xMidYMid meet">

<g transform="translate(0.000000,154.000000) scale(0.100000,-0.100000)"
fill="#000000" stroke="none">
<path d="M2111 1306 c-8 -9 -17 -66 -22 -133 -12 -150 -54 -478 -75 -582 -19
-94 -14 -123 22 -140 31 -14 89 1 98 25 3 9 11 68 16 132 20 233 62 558 80
623 16 54 -5 83 -61 87 -32 2 -50 -2 -58 -12z"/>
<path d="M698 1280 c-29 -22 -42 -47 -149 -290 -74 -169 -78 -175 -108 -178
-55 -6 -78 -65 -40 -103 l21 -21 -43 -90 c-40 -84 -42 -91 -29 -116 20 -34 61
-47 97 -30 22 11 35 33 68 123 l40 110 116 3 116 3 7 -38 c3 -21 6 -65 6 -98
0 -89 40 -130 104 -105 47 18 48 31 11 286 -18 132 -41 302 -50 379 -9 77 -23
150 -31 163 -19 30 -99 31 -136 2z m78 -467 c-2 -2 -42 -3 -88 -1 l-85 3 71
165 71 165 17 -164 c10 -91 16 -166 14 -168z"/>
<path d="M1453 1289 c-65 -19 -83 -98 -27 -119 23 -9 24 -13 19 -57 -3 -27
-10 -93 -15 -148 -6 -55 -22 -179 -37 -276 -25 -167 -26 -178 -10 -202 21 -32
71 -47 159 -47 208 0 357 96 382 246 14 81 -32 171 -105 207 l-32 15 30 15
c52 27 101 91 108 142 15 98 -46 179 -164 215 -69 22 -247 27 -308 9z m263
-120 c46 -12 94 -56 94 -86 0 -26 -73 -88 -120 -102 -23 -7 -65 -16 -91 -20
-57 -9 -53 -20 -38 119 l12 100 49 0 c27 0 69 -5 94 -11z m2 -354 c57 -24 82
-53 82 -94 0 -88 -90 -150 -227 -159 l-74 -5 6 39 c8 61 25 207 25 221 0 19
141 17 188 -2z"/>
<path d="M1166 1275 c-8 -8 -17 -34 -20 -58 -32 -286 -61 -499 -77 -576 -33
-160 -24 -195 48 -195 45 0 73 32 73 83 0 64 49 439 76 580 23 123 24 135 9
157 -12 19 -24 24 -55 24 -21 0 -45 -7 -54 -15z"/>
<path d="M2460 1059 c-32 -13 -95 -74 -124 -119 -48 -75 -69 -149 -70 -250 -1
-80 2 -101 21 -137 79 -147 303 -143 405 8 45 68 62 139 55 241 -8 127 -52
214 -129 254 -31 16 -121 18 -158 3z m108 -105 c40 -28 56 -73 56 -159 1 -44
-5 -97 -13 -119 -19 -55 -76 -114 -116 -122 -80 -15 -110 29 -102 150 6 104
32 180 78 228 39 41 62 47 97 22z"/>
<path d="M2989 1045 c-57 -29 -105 -83 -134 -149 -67 -151 -58 -330 19 -405
37 -35 99 -55 144 -45 42 10 108 51 130 81 l20 28 -9 -50 c-30 -166 -82 -255
-149 -255 -32 0 -51 15 -121 99 -69 81 -147 -19 -86 -110 27 -40 104 -85 162
-93 61 -10 141 11 181 47 72 62 108 175 144 447 11 85 30 208 42 272 21 114
21 118 3 138 -21 23 -72 27 -100 6 -17 -12 -23 -12 -47 0 -44 23 -145 17 -199
-11z m172 -98 c34 -23 34 -24 31 -96 -2 -54 -9 -87 -29 -129 -32 -68 -103
-146 -145 -161 -27 -10 -33 -8 -60 20 -30 29 -30 31 -26 112 6 119 51 214 123
258 40 25 65 24 106 -4z"/>
</g>
</svg>
